<svg width="489" height="668" xmlns="http://www.w3.org/2000/svg" xmlns:xlink="http://www.w3.org/1999/xlink" overflow="hidden" fill="rgba(0,0,0,0)"><g transform="translate(-1733 -893)"><path d="M1797.5 1073.59C1797.5 975.786 1876.79 896.5 1974.59 896.5L1980.41 896.5C2078.21 896.5 2157.5 975.786 2157.5 1073.59L2157.5 1256.41C2157.5 1354.21 2078.21 1433.5 1980.41 1433.5L1974.59 1433.5C1876.79 1433.5 1797.5 1354.21 1797.5 1256.41Z" stroke="#FFFFFF" stroke-width="6.875" stroke-miterlimit="8" fill="#FF6600" fill-rule="evenodd"/><text fill="#FFFFFF" font-family="Calibri,Calibri_MSFontService,sans-serif" font-weight="400" font-size="229" transform="matrix(1 0 0 1 1950.7 1180)">i</text><path d="M1736.5 1285C1736.5 1254.9 1760.9 1230.5 1791 1230.5L2164 1230.5C2194.1 1230.5 2218.5 1254.9 2218.5 1285L2218.5 1503C2218.5 1533.1 2194.1 1557.5 2164 1557.5L1791 1557.5C1760.9 1557.5 1736.5 1533.1 1736.5 1503Z" stroke="#FFFFFF" stroke-width="6.875" stroke-miterlimit="8" fill="#3EB3CE" fill-rule="evenodd"/></g></svg>